<svg width="66" height="15" viewBox="0 0 66 15" fill="none" xmlns="http://www.w3.org/2000/svg">
<path d="M13.8743 15H11.4561L10.1935 11.5974H3.66653L2.38253 15H0.0499335L5.63533 0.876H8.28893L13.8743 15ZM6.96213 2.8876L4.41553 9.6286H9.46593L6.96213 2.8876ZM26.6371 15H17.4779V0.876H19.6179V13.0312H26.6371V15ZM42.7627 15H40.3445L39.0819 11.5974H32.5549L31.2709 15H28.9383L34.5237 0.876H37.1773L42.7627 15ZM35.8505 2.8876L33.3039 9.6286H38.3543L35.8505 2.8876ZM48.5918 15H46.4518V0.876H48.5918V15ZM55.9912 15H53.8512V0.876H55.9912L63.2244 11.5118V0.876H65.3644V15H63.2244L55.9912 4.3642V15Z" fill="black"/>
</svg>
