<svg width="122" height="16" viewBox="0 0 122 16" fill="none" xmlns="http://www.w3.org/2000/svg">
<path d="M2.7878 15H0.6478V0.876H10.021V2.8448H2.7878V6.6326H9.5074V8.6014H2.7878V15ZM23.2684 15H14.1092V0.876H16.2492V13.0312H23.2684V15ZM36.7618 15H27.1746V0.876H36.7618V2.8448H29.3146V6.6326H36.3338V8.6014H29.3146V13.0312H36.7618V15ZM43.405 15H41.265V0.876H43.405V15ZM53.458 15.214C50.0768 15.214 47.9368 13.502 47.8084 10.72H50.034C50.1624 12.1538 51.3394 13.3308 53.6292 13.3308C55.6194 13.3308 56.882 12.3464 56.882 10.9554C56.882 9.5644 55.5766 9.2862 53.779 8.9224L52.5378 8.687C50.569 8.3018 48.0224 7.7882 48.0224 4.9634C48.0224 2.267 50.0768 0.662 53.458 0.662C56.6252 0.662 58.7652 2.267 58.8936 4.942H56.668C56.5396 3.5082 55.3626 2.5452 53.2868 2.5452C51.5106 2.5452 50.248 3.337 50.248 4.7066C50.248 6.119 51.6604 6.4186 53.351 6.7396L54.5922 6.975C56.561 7.3602 59.1076 7.8738 59.1076 10.6986C59.1076 13.502 57.0532 15.214 53.458 15.214ZM69.3926 15.214C65.348 15.214 62.4376 12.004 62.4376 7.938C62.4376 3.872 65.348 0.662 69.3926 0.662C73.2232 0.662 75.4916 3.444 75.9196 6.119H73.7796C73.3516 4.3428 71.9606 2.6308 69.3926 2.6308C66.6106 2.6308 64.5776 4.7708 64.5776 7.938C64.5776 11.1052 66.6106 13.2452 69.3926 13.2452C71.9606 13.2452 73.3516 11.5332 73.7796 9.757H75.9196C75.4916 12.432 73.2232 15.214 69.3926 15.214ZM82.2632 15H80.1232V0.876H82.2632V6.8466H89.4964V0.876H91.6364V15H89.4964V8.8154H82.2632V15ZM106.433 15H96.8458V0.876H106.433V2.8448H98.9858V6.6326H106.005V8.6014H98.9858V13.0312H106.433V15ZM112.991 15H110.851V0.876H116.543C119.539 0.876 121.465 2.374 121.465 5.156C121.465 7.3174 120.352 8.473 118.576 9.0722L121.85 15H119.346L116.436 9.436H112.991V15ZM112.991 2.8448V7.4672H116.372C118.319 7.4672 119.325 6.654 119.325 5.156C119.325 3.658 118.319 2.8448 116.372 2.8448H112.991Z" fill="black"/>
</svg>
